<?xml version="1.0" standalone="no"?>
<!DOCTYPE svg PUBLIC "-//W3C//DTD SVG 20010904//EN"
 "http://www.w3.org/TR/2001/REC-SVG-20010904/DTD/svg10.dtd">
<svg version="1.0" xmlns="http://www.w3.org/2000/svg"
 width="900.000000pt" height="905.000000pt" viewBox="0 0 900.000000 905.000000"
 preserveAspectRatio="xMidYMid meet">

<g transform="translate(0.000000,905.000000) scale(0.100000,-0.100000)"
fill="#ffffff" stroke="none">
<path d="M4355 9039 c-484 -23 -909 -191 -1304 -517 -366 -304 -634 -724 -746
-1172 -49 -197 -60 -298 -60 -565 0 -328 26 -494 121 -766 153 -442 493 -866
920 -1146 370 -243 807 -361 1286 -347 587 18 1092 234 1510 647 305 301 511
652 608 1035 51 206 65 323 65 577 0 255 -14 371 -66 579 -131 523 -478 999
-962 1323 -391 262 -836 376 -1372 352z"/>
<path d="M2235 4893 c-473 -39 -883 -250 -1161 -597 -343 -428 -559 -1020
-663 -1816 -36 -275 -48 -455 -55 -815 -8 -400 32 -627 154 -880 182 -378 550
-651 1002 -744 201 -42 244 -42 3083 -39 2531 4 2736 5 2815 21 367 74 590
182 808 391 224 215 354 478 407 821 18 119 21 577 5 811 -41 595 -157 1171
-315 1563 -23 58 -73 167 -110 240 -247 494 -550 787 -975 944 -161 59 -423
107 -590 107 -66 0 -148 -43 -430 -225 -397 -257 -467 -296 -688 -384 -733
-292 -1385 -281 -2132 36 -153 65 -222 104 -557 320 -166 106 -331 207 -365
223 -64 30 -102 34 -233 23z"/>
</g>
</svg>
