<?xml version="1.0" standalone="no"?>
<!DOCTYPE svg PUBLIC "-//W3C//DTD SVG 20010904//EN"
 "http://www.w3.org/TR/2001/REC-SVG-20010904/DTD/svg10.dtd">
<svg version="1.0" xmlns="http://www.w3.org/2000/svg"
 width="512.000000pt" height="512.000000pt" viewBox="0 0 512.000000 512.000000"
 preserveAspectRatio="xMidYMid meet">

<g transform="translate(0.000000,512.000000) scale(0.100000,-0.100000)"
fill="#ffffff" stroke="none">
<path d="M500 5102 c-47 -23 -77 -72 -85 -135 -3 -29 -5 -1132 -3 -2452 3
-2379 3 -2400 23 -2434 11 -19 33 -43 48 -55 l28 -21 1507 -3 c1420 -2 1509
-1 1542 15 19 10 45 33 57 52 l23 34 0 486 c0 467 -1 487 -20 519 -58 96 -183
95 -254 -1 -20 -28 -21 -41 -24 -418 l-3 -389 -1315 0 -1314 0 0 2260 0 2260
1314 0 1315 0 3 -389 c3 -377 4 -390 24 -418 67 -90 170 -98 244 -18 l25 27 3
497 3 497 -23 35 c-13 19 -39 42 -58 51 -33 17 -127 18 -1530 18 -1403 0
-1497 -1 -1530 -18z"/>
<path d="M3690 3487 c-75 -40 -103 -134 -60 -204 11 -18 140 -154 286 -303
l267 -270 -1088 0 -1087 0 -38 -21 c-44 -25 -80 -83 -80 -129 0 -46 36 -104
80 -129 l38 -21 1093 0 1094 0 -282 -282 c-154 -156 -286 -293 -292 -305 -17
-33 -13 -94 8 -133 27 -50 96 -84 153 -75 41 7 67 31 466 428 233 232 430 434
438 449 18 35 18 101 0 136 -8 15 -203 215 -433 444 -474 474 -465 467 -563
415z"/>
</g>
</svg>
